<svg version="1" xmlns="http://www.w3.org/2000/svg" width="92" height="80"><g id="open"><rect x="13" y="12" width="20" height="3"/><rect x="13" y="19" width="20" height="3"/><rect x="13" y="26" width="20" height="3"/></g><g id="open_1_" fill="#fff"><rect x="13" y="52" width="20" height="3"/><rect x="13" y="59" width="20" height="3"/><rect x="13" y="66" width="20" height="3"/></g><rect x="59" y="18.5" transform="matrix(.707 .707 -.707 .707 34.347 -42.93)" width="19.999" height="3"/><rect x="59" y="18.5" transform="matrix(.707 -.707 .707 .707 6.07 54.653)" width="19.999" height="3"/><rect x="59" y="58.5" transform="matrix(.707 .707 -.707 .707 62.63 -31.216)" fill="#fff" width="19.999" height="3"/><rect x="59.001" y="58.5" transform="matrix(.707 -.707 .707 .707 -22.216 66.368)" fill="#fff" width="20" height="3"/></svg>