<svg xmlns="http://www.w3.org/2000/svg" width="99.21" height="99.21" viewBox="0 0 99.21 99.21" enable-background="new 0 0 99.21 99.21"><path d="M46.857 18.462c-17.203 0-31.199 13.995-31.199 31.198s13.996 31.198 31.199 31.198c17.203 0 31.199-13.995 31.199-31.198s-13.996-31.198-31.199-31.198zM46.857 74.819c-13.874 0-25.16-11.285-25.16-25.159 0-13.873 11.287-25.16 25.16-25.16s25.161 11.287 25.161 25.16c0 13.874-11.288 25.159-25.161 25.159z"/><path fill="none" d="M25.794 25.673c-.234 .242-.485 .473-.742 .697v5.341h8.722v-6.039h-7.98z"/><rect id="_x3C_Slice_x3E__1_" x="30.419" y="35.738" fill="none" width="2.013" height="1.341"/><path d="M80.782 42.622c.557 2.172 .478 4.606 .309 7.079 8.186 5.227 9.592 8.382 9.534 8.899-.012 .019-1.567 1.871-10.53 1.216-4.623-.339-10.14-1.286-16.094-2.726l.002 .054c0 2.044-.541 3.961-1.479 5.628 6.317 1.53 12.195 2.538 17.142 2.901 9.635 .704 15.026-.963 16.486-5.099 2.029-5.741-5.404-12.243-15.37-17.952z"/><path d="M43.045 50.566c-9.452-3.579-18-7.693-24.392-11.762-8.274-5.265-9.69-8.443-9.632-8.964 .012-.019 1.323-2 10.275-1.348 1.199-2.211 3.12-3.993 5.104-5.4-1.258-.149-3.089-.227-4.417-.324-9.636-.705-15.03 .962-16.49 5.098-1.559 4.415 2.131 9.459 11.281 15.425 6.815 4.442 16.022 8.919 26.248 12.787 .189-2.038 .91-3.92 2.023-5.512z"/><circle cx="52.309" cy="57.291" r="7.8"/></svg>